<svg
	version="1.1"
	xmlns="http://www.w3.org/2000/svg"
	viewbox="0 0 512 512"
	width="512"
	height="512"
	x="0"
	y="0"
	style="background: #f6f7f7;"
>
	<g fill="#2b2b2b">
		<path d="M325.818 139.636H186.182c-25.706 0-46.545 20.839-46.545 46.545v139.636c0 25.706 20.839 46.545 46.545 46.545h139.636c25.706 0 46.545-20.839 46.545-46.545V186.182c.001-25.707-20.838-46.546-46.545-46.546zm-23.273 34.909h34.909v34.909h-34.909v-34.909zM256 209.455c25.706 0 46.545 20.839 46.545 46.545S281.706 302.545 256 302.545 209.455 281.706 209.455 256s20.839-46.545 46.545-46.545zm93.091 116.363c0 12.853-10.42 23.273-23.273 23.273H186.182c-12.853 0-23.273-10.42-23.273-23.273v-81.455h24.436c-6.988 37.921 18.087 74.327 56.008 81.316s74.327-18.087 81.316-56.008A69.785 69.785 0 0 0 325.818 256a68.951 68.951 0 0 0-1.164-11.636h24.436v81.454z"></path>
	</g>
</svg>
